<svg width="1438" height="524" viewBox="0 0 1438 524" fill="none" xmlns="http://www.w3.org/2000/svg">
<g clip-path="url(#clip0_27_427)">
<path d="M1438 0H0V524H1438V0Z" fill="#1E4B8C"/>
<g filter="url(#filter0_f_27_427)">
<path d="M1222.3 749.32C1537.33 749.32 1792.71 609.731 1792.71 437.54C1792.71 265.349 1537.33 125.76 1222.3 125.76C907.273 125.76 651.893 265.349 651.893 437.54C651.893 609.731 907.273 749.32 1222.3 749.32Z" fill="#00A67C"/>
<path d="M1260.65 434.92C1575.67 434.92 1831.05 295.331 1831.05 123.14C1831.05 -49.0513 1575.67 -188.64 1260.65 -188.64C945.62 -188.64 690.24 -49.0513 690.24 123.14C690.24 295.331 945.62 434.92 1260.65 434.92Z" fill="#1E4B8C"/>
<path d="M583.189 413.087C898.216 413.087 1153.6 273.498 1153.6 101.307C1153.6 -70.8847 898.216 -210.473 583.189 -210.473C268.162 -210.473 12.7822 -70.8847 12.7822 101.307C12.7822 273.498 268.162 413.087 583.189 413.087Z" fill="#00A67C"/>
<path d="M651.893 637.533C966.92 637.533 1222.3 497.945 1222.3 325.753C1222.3 153.562 966.92 13.9733 651.893 13.9733C336.866 13.9733 81.4866 153.562 81.4866 325.753C81.4866 497.945 336.866 637.533 651.893 637.533Z" fill="#00A67C"/>
<path d="M95.8666 593.867C410.894 593.867 666.273 454.278 666.273 282.087C666.273 109.895 410.894 -29.6933 95.8666 -29.6933C-219.16 -29.6933 -474.54 109.895 -474.54 282.087C-474.54 454.278 -219.16 593.867 95.8666 593.867Z" fill="#1E4B8C"/>
<path d="M317.958 798.227C632.985 798.227 888.364 658.638 888.364 486.447C888.364 314.255 632.985 174.667 317.958 174.667C2.93082 174.667 -252.449 314.255 -252.449 486.447C-252.449 658.638 2.93082 798.227 317.958 798.227Z" fill="#00A67C"/>
</g>
</g>
<defs>
<filter id="filter0_f_27_427" x="-796.54" y="-532.473" width="2949.59" height="1652.7" filterUnits="userSpaceOnUse" color-interpolation-filters="sRGB">
<feFlood flood-opacity="0" result="BackgroundImageFix"/>
<feBlend mode="normal" in="SourceGraphic" in2="BackgroundImageFix" result="shape"/>
<feGaussianBlur stdDeviation="161" result="effect1_foregroundBlur_27_427"/>
</filter>
<clipPath id="clip0_27_427">
<rect width="1438" height="524" fill="white"/>
</clipPath>
</defs>
</svg>
